<svg width="48" height="48" viewBox="0 0 48 48" fill="none" xmlns="http://www.w3.org/2000/svg">
<path d="M6 14C6 12.8954 6.89543 12 8 12H40C41.1046 12 42 12.8954 42 14V14C42 15.1046 41.1046 16 40 16H8C6.89543 16 6 15.1046 6 14V14ZM6 24C6 22.8954 6.89543 22 8 22H40C41.1046 22 42 22.8954 42 24V24C42 25.1046 41.1046 26 40 26H8C6.89543 26 6 25.1046 6 24V24ZM6 34C6 32.8954 6.89543 32 8 32H40C41.1046 32 42 32.8954 42 34V34C42 35.1046 41.1046 36 40 36H8C6.89543 36 6 35.1046 6 34V34Z" fill="#FDFFFC"/>
</svg>
