<svg width="29" height="40" viewBox="0 0 29 40" fill="none" xmlns="http://www.w3.org/2000/svg">
<path d="M14.5 20C14.5 18.4087 15.1585 16.8826 16.3306 15.7574C17.5027 14.6321 19.0924 14 20.75 14C22.4076 14 23.9973 14.6321 25.1694 15.7574C26.3415 16.8826 27 18.4087 27 20C27 21.5913 26.3415 23.1174 25.1694 24.2426C23.9973 25.3679 22.4076 26 20.75 26C19.0924 26 17.5027 25.3679 16.3306 24.2426C15.1585 23.1174 14.5 21.5913 14.5 20V20Z" stroke="#010B14" stroke-width="3.5"/>
<path d="M2 32C2 30.4087 2.65848 28.8826 3.83058 27.7574C5.00268 26.6321 6.5924 26 8.25 26H14.5V32C14.5 33.5913 13.8415 35.1174 12.6694 36.2426C11.4973 37.3679 9.9076 38 8.25 38C6.5924 38 5.00268 37.3679 3.83058 36.2426C2.65848 35.1174 2 33.5913 2 32Z" stroke="#010B14" stroke-width="3.5"/>
<path d="M14.5 2V14H20.75C22.4076 14 23.9973 13.3679 25.1694 12.2426C26.3415 11.1174 27 9.5913 27 8C27 6.4087 26.3415 4.88258 25.1694 3.75736C23.9973 2.63214 22.4076 2 20.75 2L14.5 2Z" stroke="#010B14" stroke-width="3.5"/>
<path d="M2 8C2 9.5913 2.65848 11.1174 3.83058 12.2426C5.00268 13.3679 6.5924 14 8.25 14H14.5V2H8.25C6.5924 2 5.00268 2.63214 3.83058 3.75736C2.65848 4.88258 2 6.4087 2 8Z" stroke="#010B14" stroke-width="3.5"/>
<path d="M2 20C2 21.5913 2.65848 23.1174 3.83058 24.2426C5.00268 25.3679 6.5924 26 8.25 26H14.5V14H8.25C6.5924 14 5.00268 14.6321 3.83058 15.7574C2.65848 16.8826 2 18.4087 2 20Z" stroke="#010B14" stroke-width="3.5"/>
</svg>
