<svg width="199" height="129" viewBox="0 0 199 129" fill="none" xmlns="http://www.w3.org/2000/svg">
<path d="M171.967 115.379L177.647 118.481L192.372 98.1513L183.989 93.5732L171.967 115.379Z" fill="#FFB6B6"/>
<path d="M191.498 125.88C191.512 126.273 191.078 127.281 190.887 127.625C190.303 128.685 188.966 129.073 187.902 128.491L170.311 118.884C169.584 118.487 169.319 117.58 169.717 116.857L170.119 116.128C170.119 116.128 170.457 113.462 173.737 111.74C173.737 111.74 174.798 115.071 179.951 113.576L181.908 112.343L186.16 121.392L189.831 124.024C190.634 124.6 191.465 124.895 191.498 125.88L191.498 125.88V125.88Z" fill="#2F2E41"/>
<path d="M186.465 0H11.6289C5.21528 0 0 5.19041 0 11.5735V117.427C0 123.81 5.21528 129 11.6289 129H186.465C192.879 129 198.094 123.81 198.094 117.427V11.5735C198.094 5.19041 192.879 0 186.465 0Z" fill="white"/>
<path d="M186.465 0H11.6289C5.21528 0 0 5.19041 0 11.5735V117.427C0 123.81 5.21528 129 11.6289 129H186.465C192.879 129 198.094 123.81 198.094 117.427V11.5735C198.094 5.19041 192.879 0 186.465 0ZM196.872 82.331C196.872 107.433 176.425 127.783 151.202 127.783H11.6289C5.88176 127.783 1.2228 123.146 1.2228 117.427V11.5735C1.2228 5.85374 5.88174 1.21698 11.6288 1.21698H186.465C192.213 1.21698 196.872 5.85375 196.872 11.5735V82.331Z" fill="#FF9505"/>
<path d="M78.8894 103.861H61.7334C60.8713 103.861 60.1682 104.561 60.1682 105.419C60.1682 106.283 60.8713 106.983 61.7334 106.983H78.8894C79.7514 106.983 80.4546 106.283 80.4546 105.419C80.4546 104.561 79.7514 103.861 78.8894 103.861Z" fill="#FF9505"/>
<path d="M107.625 103.861H90.4692C89.6072 103.861 88.9041 104.561 88.9041 105.419C88.9041 106.283 89.6072 106.983 90.4692 106.983H107.625C108.487 106.983 109.19 106.283 109.19 105.419C109.19 104.561 108.487 103.861 107.625 103.861Z" fill="#FF9505"/>
<path d="M136.361 103.861H119.205C118.343 103.861 117.64 104.561 117.64 105.419C117.64 106.283 118.343 106.983 119.205 106.983H136.361C137.223 106.983 137.926 106.283 137.926 105.419C137.926 104.561 137.223 103.861 136.361 103.861Z" fill="#FF9505"/>
<path opacity="0.7" d="M135.483 55.0085C138.262 57.4353 134.896 62.2311 133.811 65.5508C132.121 70.7226 126.785 73.7995 121.403 72.8529C117.235 72.1197 113.04 71.6015 108.82 71.3039C104.32 70.9874 99.7958 70.9205 95.2347 71.1031C90.4964 71.2917 85.7274 71.7602 80.9156 72.5087L80.8351 72.5211C75.3131 73.3761 70.0212 70.0754 68.4254 64.7452C67.5019 61.6603 64.6308 57.4291 67.0062 55.0085C74.3376 47.5376 70.4415 45.04 69.5792 42.028C68.2275 37.3066 76.0918 34.7221 80.9992 35.2199C81.2037 35.2407 81.4082 35.2611 81.6127 35.2812C88.8578 35.9931 96.1029 36.2731 103.348 36.1209C105.17 36.0905 106.998 36.0236 108.82 35.9323C112.953 35.7296 117.083 35.3869 121.214 34.9029C126.014 34.3403 134.438 36.8694 132.61 41.3226C130.726 45.911 130.519 50.6731 135.483 55.0085Z" fill="#FF9505"/>
<path opacity="0.7" d="M108.82 35.9323V71.3039C104.32 70.9875 99.7957 70.9206 95.2347 71.1031C90.4963 71.2917 85.7273 71.7603 80.9155 72.5087C81.5575 66.5881 81.1479 60.564 85.7396 58.3552C91.4195 55.617 86.3755 44.5607 81.6126 35.2812C88.8578 35.9932 96.1028 36.2731 103.348 36.121C105.17 36.0905 106.998 36.0236 108.82 35.9323V35.9323Z" fill="#FF6884"/>
<path opacity="0.7" d="M135.483 55.0084C138.21 57.4935 134.896 62.2311 133.811 65.5507C132.121 70.7225 126.785 73.7994 121.403 72.8528C117.235 72.1196 113.04 71.6014 108.82 71.3038C104.32 70.9874 99.7958 70.9204 95.2347 71.103C90.9672 65.6205 89.3346 60.5882 93.2599 57.418C97.7048 53.834 99.2517 45.0231 103.348 36.1209C105.17 36.0904 106.998 36.0235 108.82 35.9322C112.953 35.7295 117.083 35.3869 121.214 34.9028C126.014 34.3402 134.644 36.9587 132.61 41.3225C130.594 45.6478 130.343 50.3229 135.483 55.0084V55.0084Z" fill="#FF9505"/>
<path d="M93.7121 64.583H76.5562C75.6941 64.583 74.991 65.2828 74.991 66.1407C74.991 67.0048 75.6941 67.7046 76.5562 67.7046H93.7121C94.5742 67.7046 95.2773 67.0048 95.2773 66.1407C95.2773 65.2828 94.5742 64.583 93.7121 64.583Z" fill="#3F3D56"/>
<path d="M124.282 53.6294H107.126C106.264 53.6294 105.561 54.3292 105.561 55.1871C105.561 56.0512 106.264 56.751 107.126 56.751H124.282C125.145 56.751 125.848 56.0512 125.848 55.1871C125.848 54.3292 125.145 53.6294 124.282 53.6294Z" fill="#3F3D56"/>
<path d="M100.438 43.2856H83.2817C82.4197 43.2856 81.7166 43.9854 81.7166 44.8434C81.7166 45.7074 82.4197 46.4072 83.2817 46.4072H100.438C101.3 46.4072 102.003 45.7074 102.003 44.8434C102.003 43.9854 101.3 43.2856 100.438 43.2856Z" fill="#3F3D56"/>
<path d="M76.6638 62.042H13.0725V62.6505H76.6638V62.042Z" fill="#3F3D56"/>
<path d="M25.9175 68.0379C22.7148 68.0379 20.1091 65.4447 20.1091 62.2572C20.1091 59.0698 22.7148 56.4766 25.9175 56.4766C29.1201 56.4766 31.7258 59.0698 31.7258 62.2572C31.7258 65.4447 29.1201 68.0379 25.9175 68.0379ZM25.9175 57.0851C23.0518 57.0851 20.7205 59.4055 20.7205 62.2572C20.7205 65.1089 23.0518 67.4294 25.9175 67.4294C28.7831 67.4294 31.1144 65.1089 31.1144 62.2572C31.1144 59.4055 28.7831 57.0851 25.9175 57.0851Z" fill="#3F3D56"/>
<path d="M25.9176 65.2993C27.6059 65.2993 28.9746 63.9371 28.9746 62.2568C28.9746 60.5765 27.6059 59.2144 25.9176 59.2144C24.2293 59.2144 22.8606 60.5765 22.8606 62.2568C22.8606 63.9371 24.2293 65.2993 25.9176 65.2993Z" fill="#FF9505"/>
<path d="M180.131 59H116.539V59.6085H180.131V59Z" fill="#3F3D56"/>
<path d="M161.477 59.2152C161.477 56.0278 164.083 53.4346 167.286 53.4346C170.488 53.4346 173.094 56.0278 173.094 59.2152C173.094 62.4027 170.488 64.9959 167.286 64.9959C164.083 64.9959 161.477 62.4027 161.477 59.2152ZM162.089 59.2152C162.089 62.0669 164.42 64.3874 167.286 64.3874C170.151 64.3874 172.483 62.0669 172.483 59.2152C172.483 56.3635 170.151 54.0431 167.286 54.0431C164.42 54.0431 162.089 56.3635 162.089 59.2152Z" fill="#3F3D56"/>
<path d="M167.286 62.2578C168.974 62.2578 170.343 60.8956 170.343 59.2153C170.343 57.535 168.974 56.1729 167.286 56.1729C165.597 56.1729 164.229 57.535 164.229 59.2153C164.229 60.8956 165.597 62.2578 167.286 62.2578Z" fill="#FF6884"/>
<path d="M94.3948 40.1367H30.8035V40.7452H94.3948V40.1367Z" fill="#3F3D56"/>
<path d="M43.6482 46.1321C40.4455 46.1321 37.8398 43.5389 37.8398 40.3515C37.8398 37.164 40.4455 34.5708 43.6482 34.5708C46.8509 34.5708 49.4565 37.164 49.4565 40.3515C49.4565 43.5389 46.8509 46.1321 43.6482 46.1321ZM43.6482 35.1793C40.7825 35.1793 38.4512 37.4998 38.4512 40.3515C38.4512 43.2032 40.7825 45.5236 43.6482 45.5236C46.5138 45.5236 48.8451 43.2032 48.8451 40.3515C48.8451 37.4998 46.5138 35.1793 43.6482 35.1793Z" fill="#3F3D56"/>
<path d="M43.6481 43.394C45.3364 43.394 46.7051 42.0318 46.7051 40.3515C46.7051 38.6712 45.3364 37.3091 43.6481 37.3091C41.9597 37.3091 40.5911 38.6712 40.5911 40.3515C40.5911 42.0318 41.9597 43.394 43.6481 43.394Z" fill="#FF6884"/>
</svg>
