<svg width="254" height="133" viewBox="0 0 254 133" fill="none" xmlns="http://www.w3.org/2000/svg">
<rect x="0.877441" y="0.87207" width="252.245" height="131.256" rx="6" fill="white"/>
<path d="M193.462 41.4261H154.857C154.275 41.4261 153.717 41.1964 153.306 40.7875C152.895 40.3786 152.664 39.824 152.664 39.2458C152.664 38.6675 152.895 38.1129 153.306 37.704C153.717 37.2951 154.275 37.0654 154.857 37.0654H193.462C194.043 37.0654 194.601 37.2951 195.012 37.704C195.424 38.1129 195.655 38.6675 195.655 39.2458C195.655 39.824 195.424 40.3786 195.012 40.7875C194.601 41.1964 194.043 41.4261 193.462 41.4261V41.4261Z" fill="#586156"/>
<path d="M223.292 56.6888H154.857C154.275 56.6888 153.717 56.4591 153.306 56.0502C152.895 55.6413 152.664 55.0867 152.664 54.5085C152.664 53.9302 152.895 53.3756 153.306 52.9667C153.717 52.5578 154.275 52.3281 154.857 52.3281H223.292C223.874 52.3281 224.432 52.5578 224.843 52.9667C225.255 53.3756 225.486 53.9302 225.486 54.5085C225.486 55.0867 225.255 55.6413 224.843 56.0502C224.432 56.4591 223.874 56.6888 223.292 56.6888Z" fill="#586156"/>
<path d="M206.183 71.951H154.857C154.275 71.951 153.717 71.7213 153.306 71.3124C152.895 70.9035 152.664 70.3489 152.664 69.7707C152.664 69.1924 152.895 68.6378 153.306 68.2289C153.717 67.82 154.275 67.5903 154.857 67.5903H206.183C206.765 67.5903 207.323 67.82 207.734 68.2289C208.146 68.6378 208.377 69.1924 208.377 69.7707C208.377 70.3489 208.146 70.9035 207.734 71.3124C207.323 71.7213 206.765 71.951 206.183 71.951Z" fill="#586156"/>
<path d="M223.292 87.2132H154.857C154.275 87.2132 153.717 86.9835 153.306 86.5746C152.895 86.1657 152.664 85.6111 152.664 85.0329C152.664 84.4546 152.895 83.9 153.306 83.4911C153.717 83.0823 154.275 82.8525 154.857 82.8525H223.292C223.874 82.8525 224.432 83.0823 224.843 83.4911C225.255 83.9 225.486 84.4546 225.486 85.0329C225.486 85.6111 225.255 86.1657 224.843 86.5746C224.432 86.9835 223.874 87.2132 223.292 87.2132V87.2132Z" fill="#586156"/>
<path d="M65.4975 100.302C87.1743 100.302 104.747 82.8341 104.747 61.2868C104.747 39.7395 87.1743 22.272 65.4975 22.272C43.8206 22.272 26.248 39.7395 26.248 61.2868C26.248 82.8341 43.8206 100.302 65.4975 100.302Z" fill="#FF9505"/>
<path d="M67.6911 24.4734H63.3042V20.1128H67.6911V24.4734ZM64.1816 23.6013H66.8137V20.9849H64.1816V23.6013Z" fill="#3F3D56"/>
<path d="M90.1674 21.8574H66.917V22.7296H90.1674V21.8574Z" fill="#3F3D56"/>
<path d="M90.1676 23.2022C90.6722 23.2022 91.0813 22.7956 91.0813 22.294C91.0813 21.7924 90.6722 21.3857 90.1676 21.3857C89.663 21.3857 89.2539 21.7924 89.2539 22.294C89.2539 22.7956 89.663 23.2022 90.1676 23.2022Z" fill="#3F3D56"/>
<path d="M63.8464 21.8574H41.0347V22.7296H63.8464V21.8574Z" fill="#3F3D56"/>
<path d="M41.0343 23.2022C41.5389 23.2022 41.948 22.7956 41.948 22.294C41.948 21.7924 41.5389 21.3857 41.0343 21.3857C40.5297 21.3857 40.1206 21.7924 40.1206 22.294C40.1206 22.7956 40.5297 23.2022 41.0343 23.2022Z" fill="#3F3D56"/>
<path d="M106.838 63.3641H102.451V59.0034H106.838V63.3641ZM103.328 62.4919H105.96V59.8755H103.328V62.4919Z" fill="#3F3D56"/>
<path d="M105.082 63.0312H104.205V85.7067H105.082V63.0312Z" fill="#3F3D56"/>
<path d="M104.644 86.6153C105.149 86.6153 105.558 86.2086 105.558 85.707C105.558 85.2055 105.149 84.7988 104.644 84.7988C104.14 84.7988 103.73 85.2055 103.73 85.707C103.73 86.2086 104.14 86.6153 104.644 86.6153Z" fill="#3F3D56"/>
<path d="M105.082 36.8672H104.205V59.5426H105.082V36.8672Z" fill="#3F3D56"/>
<path d="M104.644 37.7754C105.149 37.7754 105.558 37.3688 105.558 36.8672C105.558 36.3656 105.149 35.959 104.644 35.959C104.14 35.959 103.73 36.3656 103.73 36.8672C103.73 37.3688 104.14 37.7754 104.644 37.7754Z" fill="#3F3D56"/>
<path d="M28.3127 63.3641H23.9258V59.0034H28.3127V63.3641ZM24.8032 62.4919H27.4353V59.8755H24.8032V62.4919Z" fill="#3F3D56"/>
<path d="M26.5576 63.0312H25.6802V85.7067H26.5576V63.0312Z" fill="#3F3D56"/>
<path d="M26.1188 86.6153C26.6234 86.6153 27.0324 86.2086 27.0324 85.707C27.0324 85.2055 26.6234 84.7988 26.1188 84.7988C25.6141 84.7988 25.2051 85.2055 25.2051 85.707C25.2051 86.2086 25.6141 86.6153 26.1188 86.6153Z" fill="#3F3D56"/>
<path d="M26.5576 35.9951H25.6802V59.5427H26.5576V35.9951Z" fill="#3F3D56"/>
<path d="M26.1188 37.7754C26.6234 37.7754 27.0324 37.3688 27.0324 36.8672C27.0324 36.3656 26.6234 35.959 26.1188 35.959C25.6141 35.959 25.2051 36.3656 25.2051 36.8672C25.2051 37.3688 25.6141 37.7754 26.1188 37.7754Z" fill="#3F3D56"/>
<path d="M67.6911 102.529H63.3042V98.1685H67.6911V102.529ZM64.1816 101.657H66.8137V99.0406H64.1816V101.657Z" fill="#3F3D56"/>
<path d="M90.6064 99.9131H67.356V100.785H90.6064V99.9131Z" fill="#3F3D56"/>
<path d="M90.1676 101.258C90.6722 101.258 91.0813 100.851 91.0813 100.35C91.0813 99.848 90.6722 99.4414 90.1676 99.4414C89.663 99.4414 89.2539 99.848 89.2539 100.35C89.2539 100.851 89.663 101.258 90.1676 101.258Z" fill="#3F3D56"/>
<path d="M63.8464 99.9131H41.0347V100.785H63.8464V99.9131Z" fill="#3F3D56"/>
<path d="M41.0343 101.258C41.5389 101.258 41.948 100.851 41.948 100.35C41.948 99.848 41.5389 99.4414 41.0343 99.4414C40.5297 99.4414 40.1206 99.848 40.1206 100.35C40.1206 100.851 40.5297 101.258 41.0343 101.258Z" fill="#3F3D56"/>
<path d="M246.542 133H7.45769C5.48046 132.998 3.58486 132.216 2.18675 130.826C0.788643 129.437 0.00221657 127.552 0 125.587V7.41311C0.00221657 5.44771 0.788643 3.56344 2.18675 2.17369C3.58486 0.783936 5.48046 0.00220332 7.45769 0H246.542C248.52 0.00221254 250.415 0.783945 251.813 2.17369C253.211 3.56344 253.998 5.44771 254 7.41311V125.587C253.998 127.552 253.211 129.437 251.813 130.826C250.415 132.216 248.52 132.998 246.542 133V133ZM7.45769 0.872131C5.71308 0.874093 4.0405 1.56386 2.80688 2.79011C1.57326 4.01635 0.879349 5.67894 0.877375 7.41311V125.587C0.879349 127.321 1.57326 128.984 2.80688 130.21C4.0405 131.436 5.71308 132.126 7.45769 132.128H246.542C248.287 132.126 249.959 131.436 251.193 130.21C252.427 128.984 253.121 127.321 253.123 125.587V7.41311C253.121 5.67894 252.427 4.01635 251.193 2.79011C249.959 1.56386 248.287 0.874093 246.542 0.872131H7.45769Z" fill="#FF9505"/>
<path d="M144.767 41.4261C145.978 41.4261 146.96 40.4499 146.96 39.2458C146.96 38.0416 145.978 37.0654 144.767 37.0654C143.555 37.0654 142.573 38.0416 142.573 39.2458C142.573 40.4499 143.555 41.4261 144.767 41.4261Z" fill="#1E1E1E"/>
<path d="M144.767 56.6888C145.978 56.6888 146.96 55.7126 146.96 54.5085C146.96 53.3043 145.978 52.3281 144.767 52.3281C143.555 52.3281 142.573 53.3043 142.573 54.5085C142.573 55.7126 143.555 56.6888 144.767 56.6888Z" fill="#1E1E1E"/>
<path d="M144.767 71.951C145.978 71.951 146.96 70.9748 146.96 69.7707C146.96 68.5665 145.978 67.5903 144.767 67.5903C143.555 67.5903 142.573 68.5665 142.573 69.7707C142.573 70.9748 143.555 71.951 144.767 71.951Z" fill="#1E1E1E"/>
<path d="M144.767 87.2132C145.978 87.2132 146.96 86.237 146.96 85.0329C146.96 83.8287 145.978 82.8525 144.767 82.8525C143.555 82.8525 142.573 83.8287 142.573 85.0329C142.573 86.237 143.555 87.2132 144.767 87.2132Z" fill="#1E1E1E"/>
<path d="M192.17 104.232H178.774C178.336 104.231 177.917 104.058 177.608 103.751C177.298 103.443 177.125 103.026 177.124 102.592V86.8777C177.125 86.4429 177.298 86.0261 177.608 85.7186C177.917 85.4112 178.336 85.2383 178.774 85.2378H192.17C192.607 85.2383 193.027 85.4112 193.336 85.7186C193.645 86.0261 193.819 86.4429 193.82 86.8777V102.592C193.819 103.026 193.645 103.443 193.336 103.751C193.027 104.058 192.607 104.231 192.17 104.232V104.232Z" fill="#FF9505"/>
</svg>
