<svg width="221" height="132" viewBox="0 0 221 132" fill="none" xmlns="http://www.w3.org/2000/svg">
<path d="M187.345 2.8262L187.345 129.174C187.344 129.923 187.045 130.641 186.513 131.171C185.981 131.701 185.259 131.999 184.507 132L2.83856 132C2.08599 131.999 1.36448 131.701 0.832324 131.171C0.300172 130.641 0.000839733 129.923 3.38495e-08 129.174L1.54712e-06 2.8262C0.000842146 2.0769 0.300174 1.35853 0.832325 0.8287C1.36448 0.298867 2.08599 0.000839291 2.83857 2.3724e-06L184.507 4.52933e-06C185.259 0.00086869 185.981 0.298895 186.513 0.828722C187.045 1.35855 187.344 2.07691 187.345 2.8262V2.8262Z" fill="#FF9505"/>
<path d="M184.674 5.48642L184.674 126.514C184.673 127.263 184.374 127.982 183.842 128.512C183.309 129.041 182.588 129.339 181.835 129.34L5.51044 129.34C4.75786 129.339 4.03635 129.041 3.5042 128.512C2.97205 127.982 2.67271 127.263 2.67188 126.514L2.67188 5.48642C2.67272 4.73712 2.97205 4.01875 3.5042 3.48892C4.03635 2.95909 4.75786 2.66106 5.51044 2.66022L181.835 2.66022C182.588 2.66109 183.309 2.95912 183.842 3.48894C184.374 4.01877 184.673 4.73713 184.674 5.48642V5.48642Z" fill="white"/>
<path d="M175.428 93.4081C161.154 104.174 144.862 99.9048 133.497 106.212C89.9366 130.387 93.9499 100.619 102.421 66.9641L103.361 66.8839C106.681 88.3041 117.753 102.391 133.739 105.533C146.162 107.975 160.728 103.494 174.755 92.9154L175.428 93.4081Z" fill="#586156"/>
<path d="M122.304 69.759L121.408 69.9839C115.936 57.9664 99.6361 58.9989 95.9141 48.247C67.5605 -33.6574 64.3631 47.1913 49.3654 65.3766C35.9536 81.639 20.3606 99.3621 12.3298 121.886L11.4155 121.707C19.4817 99.0841 32.7027 78.9178 48.6434 64.9234C64.6639 50.8583 81.5376 44.6947 96.156 47.5682C107.684 49.8342 116.725 57.5077 122.304 69.759Z" fill="#586156"/>
<path d="M90.8885 102.472C90.4527 107.964 86.8025 101.484 81.2866 101.05C79.9747 100.947 78.6959 100.588 77.5233 99.9936C76.3507 99.3987 75.3072 98.5797 74.4526 97.5833C73.598 96.5869 72.949 95.4326 72.5425 94.1864C72.1361 92.9402 71.9802 91.6264 72.0838 90.3202C72.1875 89.014 72.5486 87.7409 73.1465 86.5737C73.7445 85.4065 74.5675 84.368 75.5687 83.5175C76.5698 82.6671 77.7294 82.0213 78.9813 81.6172C80.2331 81.2131 81.5527 81.0585 82.8646 81.1623C88.3804 81.5961 91.3242 96.9804 90.8885 102.472Z" fill="#FF9505"/>
<path d="M56.5483 49.7418C56.4447 51.0476 56.0838 52.3203 55.4862 53.4873C54.8885 54.6543 54.0659 55.6926 53.0652 56.543C52.0646 57.3935 50.9054 58.0393 49.6541 58.4437C48.4027 58.8482 47.0836 59.0032 45.772 58.9001C40.2562 58.4662 36.5664 69.3721 37.0021 63.8803C37.4379 58.3885 41.8341 38.5786 47.35 39.0124C48.6615 39.1156 49.9398 39.4749 51.1119 40.0699C52.284 40.665 53.3268 41.484 54.181 42.4803C55.0351 43.4766 55.6838 44.6307 56.09 45.8766C56.4962 47.1225 56.6519 48.4359 56.5483 49.7418V49.7418Z" fill="#FF9505"/>
<path d="M43.9749 37.7218C45.4828 36.998 47.225 37.4247 48.527 38.3805C50.0078 39.4677 50.7378 41.197 50.9791 42.9709C51.2112 44.8749 51.0514 46.8061 50.5096 48.6467C49.995 50.4223 48.8918 52.265 46.921 52.6312C45.6074 52.8753 44.2056 52.3174 43.8415 50.9592C43.7031 50.4145 43.708 49.8435 43.8558 49.3012C44.0036 48.7589 44.2892 48.2637 44.6851 47.8632C45.8639 46.7355 47.7561 46.8214 49.1253 47.5381C50.7357 48.381 51.6244 50.0677 51.9177 51.8018C52.2663 53.8636 51.7793 55.9353 51.0863 57.8748C50.3332 59.9829 49.3953 62.0279 48.5338 64.0934C46.8537 68.1215 45.2755 72.2362 44.6063 76.5679C43.5842 83.185 45.1758 91.0381 51.0025 95.0889C54.1479 97.2755 58.0926 97.895 61.8453 97.4244C65.8028 96.928 69.4394 95.1991 72.6599 92.9097C74.335 91.6975 75.9259 90.3739 77.4216 88.9479C77.875 88.4837 78.4567 88.1642 79.0929 88.03C79.7291 87.8958 80.391 87.9529 80.9945 88.1941C84.0914 89.449 83.1044 94.4664 79.9122 94.8403C78.4617 95.0102 76.9678 94.2044 75.984 93.1977C74.9107 92.0551 74.2103 90.6155 73.975 89.0687C73.4289 85.8131 74.6413 82.3716 76.7472 79.883C79.1263 77.0715 82.7418 75.4887 86.2614 74.6551C90.2685 73.7059 94.39 73.6575 98.486 73.5673C102.678 73.475 106.919 73.3163 110.965 72.119C114.221 71.1454 117.293 69.6422 120.057 67.6705C125.625 63.7325 129.792 58.1343 131.955 51.6844C132.464 50.1242 132.84 48.5244 133.081 46.9016C133.175 46.2664 132.176 46.1905 132.082 46.8231C131.029 53.8966 127.182 60.4015 121.775 65.0581C119.078 67.3917 115.99 69.2361 112.652 70.5072C108.632 72.0258 104.362 72.4108 100.095 72.5348C95.7379 72.6614 91.3409 72.5925 87.0484 73.4611C83.2536 74.229 79.4109 75.7352 76.646 78.5247C74.208 80.9843 72.6998 84.503 72.8616 87.9806C73.0121 91.2164 74.8021 94.6764 78.1181 95.638C79.674 96.0891 81.3443 95.8021 82.5 94.6194C83.1424 93.9452 83.5846 93.1069 83.7776 92.1976C83.9706 91.2883 83.9069 90.3435 83.5934 89.4681C83.1802 88.517 82.4264 87.7529 81.4786 87.3247C80.5308 86.8964 79.4569 86.8345 78.4658 87.1511C77.7381 87.4173 77.0809 87.8451 76.5441 88.402C73.413 91.3211 69.9092 93.9999 65.8321 95.4535C62.0294 96.8094 57.6549 97.0875 53.8711 95.5238C46.7077 92.5636 44.5552 83.9724 45.5564 76.9743C46.2116 72.3945 47.9532 68.0581 49.7345 63.8157C50.6442 61.6494 51.6551 59.4971 52.3514 57.2503C52.9749 55.2388 53.2879 53.0802 52.7766 51.0078C52.3304 49.1989 51.2741 47.5364 49.5843 46.6602C48.0494 45.8643 46.1017 45.727 44.5979 46.6735C42.4238 48.042 41.9347 51.8207 44.3767 53.1977C45.997 54.1114 48.0717 53.6625 49.4155 52.4625C50.9221 51.1172 51.5375 49.1026 51.8481 47.1746C52.435 43.5315 51.9737 39.0452 48.3596 37.0962C46.8707 36.2932 45.0954 36.0764 43.5389 36.8235C43.4239 36.8837 43.3369 36.9861 43.2962 37.1091C43.2555 37.232 43.2644 37.3658 43.321 37.4823C43.3775 37.5989 43.4773 37.689 43.5993 37.7336C43.7213 37.7783 43.856 37.774 43.9749 37.7217L43.9749 37.7218Z" fill="#3F3D56"/>
<path d="M133.285 49.44C132.823 55.2638 140.826 70.8354 137.383 75.0506C136.956 75.5773 136.508 76.0868 136.039 76.5791C134.521 78.1908 132.813 79.6142 130.953 80.8185C130.638 81.0272 130.321 81.2257 130.001 81.4173C128.864 82.0927 127.68 82.6873 126.459 83.1967C126.238 83.286 126.013 83.375 125.788 83.4641C119.631 85.8362 112.828 85.9563 106.59 83.8031C100.352 81.65 95.0841 77.3631 91.7228 71.7054C88.3616 66.0477 87.1255 59.3862 88.2344 52.9062C89.3433 46.4262 92.7254 40.5481 97.7787 36.3179C98.0446 36.092 98.3165 35.8733 98.5948 35.6583C101.357 33.511 104.502 31.9036 107.865 30.9209C107.868 30.9212 107.868 30.9178 107.872 30.9181C112.914 29.4524 118.268 29.4285 123.323 30.8493L123.33 30.8499C123.441 30.882 123.553 30.9141 123.664 30.9495C136.028 34.5869 134.341 36.1318 133.285 49.44Z" fill="#FF9505"/>
<path d="M126.473 83.0713C126.474 83.1136 126.469 83.1558 126.46 83.197C126.238 83.2863 126.013 83.3753 125.788 83.4644C125.694 83.4267 125.614 83.3615 125.558 83.2772C125.501 83.193 125.472 83.0938 125.474 82.9927C125.472 82.4886 125.415 81.9863 125.302 81.4949C124.334 77.2297 119.948 74.7435 116.033 73.6784C111.242 72.3711 106.095 72.3531 101.626 69.9904C99.7897 69.0725 98.2055 67.723 97.0104 66.0587C95.7665 64.2311 95.2448 62.0104 95.5455 59.8231C96.2285 54.6771 100.208 50.9211 101.847 46.1437C102.522 44.1757 102.688 42.0808 101.92 40.1126C101.269 38.4405 99.9827 36.9151 98.1341 36.5696C98.0593 36.5582 97.9883 36.5296 97.9266 36.4859C97.8649 36.4422 97.8143 36.3848 97.7789 36.3182C98.0447 36.0923 98.3167 35.8736 98.595 35.6587C98.9287 35.7354 99.2533 35.847 99.5635 35.9917C101.333 36.8312 102.476 38.5054 103.048 40.3281C103.708 42.4379 103.457 44.6328 102.718 46.6859C100.995 51.4733 96.7364 55.4108 96.4711 60.6964C96.2416 65.2778 100.024 68.4436 103.969 69.968C108.851 71.8528 114.324 71.5729 119.134 73.6889C122.918 75.354 126.455 78.6907 126.473 83.0713Z" fill="#3F3D56"/>
<path d="M130.953 80.8187C130.638 81.0274 130.321 81.2259 130.001 81.4175C129.964 81.3711 129.937 81.3174 129.922 81.2598C129.908 81.2023 129.906 81.1424 129.917 81.084C130.423 76.8094 129.271 72.5035 126.694 69.047C125.581 67.5304 124.217 66.2121 122.662 65.1477C121.035 64.0425 119.205 63.3749 117.399 62.6258C115.621 61.889 113.824 61.0239 112.537 59.5585C111.225 58.0645 110.674 56.1368 110.615 54.1843C110.476 49.5573 113.118 45.5226 113.663 41.0194C113.906 39.0107 113.615 37.0167 112.489 35.2971C111.514 33.813 109.989 32.7324 108.158 32.8019C107.553 32.8277 107.592 31.9503 108.125 31.8221C108.161 31.8133 108.199 31.8084 108.237 31.8075C110.367 31.7282 112.189 33.0323 113.316 34.7485C114.629 36.7428 114.953 39.073 114.62 41.405C113.974 45.9168 111.232 50.087 111.645 54.7556C111.702 55.7353 111.965 56.6921 112.417 57.5642C112.868 58.4363 113.499 59.2042 114.268 59.8181C115.852 61.0467 117.787 61.6958 119.623 62.4539C121.458 63.1733 123.166 64.179 124.683 65.4334C126.164 66.7028 127.432 68.1999 128.438 69.8679C130.45 73.149 131.332 76.9933 130.953 80.8187V80.8187Z" fill="#3F3D56"/>
<path d="M137.383 75.051C136.956 75.5777 136.508 76.0873 136.039 76.5796C136.689 74.0394 136.8 71.3924 136.365 68.8072C135.841 65.5546 134.501 62.4862 132.47 59.8858C131.451 58.591 130.251 57.4486 128.907 56.4937C127.368 55.4055 125.668 54.4546 124.649 52.8136C122.44 49.2511 124.46 44.9874 125.546 41.4307C126.115 39.5744 126.501 37.5802 125.871 35.6895C125.381 34.2235 124.294 32.8006 122.689 32.5109C122.058 32.3979 122.134 31.3999 122.768 31.5165C122.887 31.5392 123.006 31.5652 123.124 31.5945C124.866 32.0518 126.124 33.4714 126.735 35.1471C127.526 37.3339 127.155 39.5994 126.49 41.7718C125.396 45.3445 123.146 50.0138 126.25 53.2463C127.559 54.61 129.331 55.4465 130.761 56.6763C132.043 57.7732 133.169 59.0388 134.108 60.4382C136.983 64.7358 138.15 69.9441 137.383 75.051Z" fill="#3F3D56"/>
<path d="M218.161 132H194.451C193.699 131.999 192.977 131.701 192.445 131.171C191.913 130.641 191.613 129.923 191.613 129.174V120.861C191.613 120.112 191.913 119.394 192.445 118.864C192.977 118.334 193.699 118.036 194.451 118.035H218.161C218.914 118.036 219.636 118.334 220.168 118.864C220.7 119.394 220.999 120.112 221 120.861V129.174C220.999 129.923 220.7 130.641 220.168 131.171C219.636 131.701 218.914 131.999 218.161 132Z" fill="#FF9505"/>
</svg>
